/* XPM */
static char *_3019524720043559dd079e3205ae7e7Cu5iLuSh2vXTUPu4[] = {
/* columns rows colors chars-per-pixel */
"20 20 13 1 ",
"  c #181425",
". c #3F2832",
"X c #743F39",
"o c #7AB055",
"O c #4D9262",
"+ c #63C74D",
"@ c #FEAE34",
"# c #FEE761",
"$ c #124E89",
"% c #2CE8F5",
"& c #8B9BB4",
"* c #C0CBDC",
"= c white",
/* pixels */
"OOOOOOOO *& OOOOoOOO",
"O==#=##########==#=O",
"O@XXXXXXXXXXXXXXXX@O",
"O@................@O",
"O@................@O",
"O@................@O",
"O@XX............XX@O",
"O@XXXXXXXXXXXXXXXX@O",
"O@@@@@@@@@@@@@@@@@@O",
"O@XXXXXXXXXXXXXXXX@O",
"O#XX....=#+=#...XX#O",
"O#...==%#####=@...#O",
"O= @$@@@=@@@@@@+  =O",
"O==#=##########=#==O",
"O=................=O",
"O#.XXXXXXXXXXXXXX.#O",
"O#.XXXXXXXXXXXXXX.#O",
"O#.XXXXXXXXXXXXXX.#O",
"O #XXXXXXXXXXXXXX# O",
"O@ ##=========#=# @O"
};
