/* XPM */
static char *f1f2c979c44b4be4d5b401d037a4cebfy0066rnAeezAXKhQ[] = {
/* columns rows colors chars-per-pixel */
"20 20 3 1 ",
"  c #3E734E",
". c #7AB055",
"X c #4D9262",
/* pixels */
"XXXXXXXXXXXXXXXX.XXX",
"XXXXXXXXXXXXXX.X.XXX",
"XXXXXXXXXXXXXX.X.XXX",
"XXXXXXXXXXXXXX.XXXXX",
"XXXXXXXXXXXXXXXXXXXX",
"XXXX.XXXXXXXXXXXXXXX",
"XXX.X.XXXXXXXXXXXXXX",
"XXXX.XXXXXXXXXXXXXXX",
"XXXXXXXXXXXXXXXXXXXX",
"XXXXXXXXXXXXX XXXXXX",
"XXXXXXXXXXXX X XXXXX",
"XXXXXXXXXXXXX XXXXXX",
"XXXXXXXXXXXXXXXXXXXX",
"XXXXXXXXXXXXXXXXXXXX",
"XXXXXXXX.XXXXXXXXXXX",
"XXXXXXXX..XXXXXXXXXX",
"XXXXXXXX..XX.XXXXXXX",
"XXXXXXXXX. ..XXXXXXX",
"XXXXXXXXX .. XXXXXXX",
"XXXXXXXXXX  XXXXXXXX"
};
