/* XPM */
static char *_a92332b8f9d4a91f828ce008033d783Mizy8idalSTRsl0k[] = {
/* columns rows colors chars-per-pixel */
"20 20 18 1 ",
"  c #3D3957",
". c #3E734E",
"X c #4E4D5C",
"o c #5A526B",
"O c #5C6D77",
"+ c #7AB055",
"@ c #4D9262",
"# c #6E7A80",
"$ c #7B888F",
"% c #728794",
"& c #8A98A0",
"* c #9BAAB3",
"= c #A6AFB4",
"- c #E6A3A3",
"; c #A7B8C2",
": c #BAC4CA",
"> c #C6DBDE",
", c #DFEDED",
/* pixels */
"@@@@@@@@@@@@@@@@+@@@",
"@@@@@@@@@@@@@@+@+@@@",
"@@@@@@@@@@@@@@+@+@@@",
"@@@>@@@@>@@@@@+@@@@@",
"@@>->@@>->@@@@@@@@@@",
"@@>-,,,,,>@@@@@@@@@@",
"@>,,,,,,,,,@@@@@@@@@",
";;;,X,,,,X,;@@@@@@@@",
"@>,,,,,X,,,@@@@@@@@@",
";;;,,,X-X,,;@.@@@@@@",
"@>,,,,,,,,,@.@.@@@@@",
"@,>,,,,,,,@@@.@@@@@@",
",@&==&==@ @@@@@@@@@@",
",**::==OO :::::::::@",
",**$$=o%O *********:",
",***:#=%% :::::::::@",
"@,***=&&+ @@+@@@@@@@",
"@@$@@@#@@+.++@@@@@@@",
"@@@@@@@@@.++.@@@@@@@",
"@@@@@@@@@@..@@@@@@@@"
};
