/* XPM */
static char *_7b58063519944e1f8cd4a5be51b811baYUhpo4vBzPKfOu3[] = {
/* columns rows colors chars-per-pixel */
"20 20 29 1 ",
"  c #8FC3B4",
". c #8FC4B5",
"X c #91C6B6",
"o c #95CAB7",
"O c #9ACDB7",
"+ c #93C9B9",
"@ c #94CBBA",
"# c #95CCBB",
"$ c #97CEBE",
"% c #9ACEBA",
"& c #9ACFBC",
"* c #9FD2BB",
"= c #98D0BF",
"- c #9ED3BE",
"; c #A1CFB4",
": c #A3D2B7",
"> c #A7D7BB",
", c #A0D4BC",
"< c #A9DABC",
"1 c #ABDDBF",
"2 c #AEDEBF",
"3 c #9AD2C1",
"4 c #9BD4C3",
"5 c #9DD5C3",
"6 c #A3D7C0",
"7 c #A3D8C1",
"8 c #A4D9C1",
"9 c #A8DBC0",
"0 c #AADCC0",
/* pixels */
"55555555555444444444",
"77777777765543333444",
"0000000008754@XX3444",
"22222222208554444444",
"0<:;:>01096544444444",
"86,**,888,%@34444444",
"55555555555544444444",
"44444444444444444444",
"4444444443$$##$$3444",
"4444444443+. ..+=444",
"44444444444444444444",
"44444444444444444444",
"443=+XX+$4555553$@$5",
"44444444455666666-55",
"44444444457899999987",
"54444443$&*><2222208",
"65=+$34$+oO:>1222208",
"86533444456788888886",
"08544444455555555555",
"97544444444444444444"
};
